<svg xmlns="http://www.w3.org/2000/svg" xmlns:xlink="http://www.w3.org/1999/xlink" width="1000px" height="1000px" viewBox="0 0 1000 1000" zoomAndPan="disable"><defs><style type="text/css">polygon { fill: #090909 }</style></defs><polygon points="-115.73,-71.17 -9.03,-114.39 -59.25,4.12" opacity="0.014" /><polygon points="-9.03,-114.39 103.79,-90.72 39.28,5.06" opacity="0.064" /><polygon points="103.79,-90.72 208.44,-59.00 140.97,4.45" opacity="0.011" /><polygon points="208.44,-59.00 311.47,-92.08 256.77,-14.21" opacity="0.077" /><polygon points="311.47,-92.08 391.22,-90.30 351.56,2.94" opacity="0.020" /><polygon points="391.22,-90.30 498.62,-54.28 445.59,10.70" opacity="0.042" /><polygon points="498.62,-54.28 626.03,-65.27 523.01,18.19" opacity="0.081" /><polygon points="626.03,-65.27 692.77,-89.29 633.50,-0.81" opacity="0.062" /><polygon points="692.77,-89.29 805.56,-74.47 748.33,-6.25" opacity="0.034" /><polygon points="805.56,-74.47 932.73,-93.64 816.70,-3.07" opacity="0.014" /><polygon points="932.73,-93.64 993.16,-98.11 968.36,21.36" opacity="0.012" /><polygon points="993.16,-98.11 1068.34,-88.73 1060.43,31.74" opacity="0.087" /><polygon points="-9.03,-114.39 -59.25,4.12 39.28,5.06" opacity="0.152" /><polygon points="103.79,-90.72 39.28,5.06 140.97,4.45" opacity="0.168" /><polygon points="208.44,-59.00 140.97,4.45 256.77,-14.21" opacity="0.173" /><polygon points="311.47,-92.08 256.77,-14.21 351.56,2.94" opacity="0.127" /><polygon points="391.22,-90.30 351.56,2.94 445.59,10.70" opacity="0.169" /><polygon points="498.62,-54.28 445.59,10.70 523.01,18.19" opacity="0.184" /><polygon points="626.03,-65.27 523.01,18.19 633.50,-0.81" opacity="0.110" /><polygon points="692.77,-89.29 633.50,-0.81 748.33,-6.25" opacity="0.102" /><polygon points="805.56,-74.47 748.33,-6.25 816.70,-3.07" opacity="0.181" /><polygon points="932.73,-93.64 816.70,-3.07 968.36,21.36" opacity="0.106" /><polygon points="993.16,-98.11 968.36,21.36 1060.43,31.74" opacity="0.185" /><polygon points="-59.25,4.12 -98.44,94.56 10.78,85.15" opacity="0.168" /><polygon points="39.28,5.06 10.78,85.15 115.06,95.17" opacity="0.125" /><polygon points="140.97,4.45 115.06,95.17 220.69,110.04" opacity="0.135" /><polygon points="256.77,-14.21 220.69,110.04 290.50,64.81" opacity="0.112" /><polygon points="351.56,2.94 290.50,64.81 385.58,75.00" opacity="0.138" /><polygon points="445.59,10.70 385.58,75.00 525.99,78.76" opacity="0.119" /><polygon points="523.01,18.19 525.99,78.76 625.33,97.37" opacity="0.145" /><polygon points="633.50,-0.81 625.33,97.37 688.20,89.21" opacity="0.120" /><polygon points="748.33,-6.25 688.20,89.21 775.01,86.62" opacity="0.187" /><polygon points="816.70,-3.07 775.01,86.62 903.15,87.84" opacity="0.116" /><polygon points="968.36,21.36 903.15,87.84 986.37,88.61" opacity="0.117" /><polygon points="1060.43,31.74 986.37,88.61 1108.63,92.83" opacity="0.138" /><polygon points="-59.25,4.12 39.28,5.06 10.78,85.15" opacity="0.029" /><polygon points="39.28,5.06 140.97,4.45 115.06,95.17" opacity="0.059" /><polygon points="140.97,4.45 256.77,-14.21 220.69,110.04" opacity="0.043" /><polygon points="256.77,-14.21 351.56,2.94 290.50,64.81" opacity="0.085" /><polygon points="351.56,2.94 445.59,10.70 385.58,75.00" opacity="0.047" /><polygon points="445.59,10.70 523.01,18.19 525.99,78.76" opacity="0.059" /><polygon points="523.01,18.19 633.50,-0.81 625.33,97.37" opacity="0.077" /><polygon points="633.50,-0.81 748.33,-6.25 688.20,89.21" opacity="0.071" /><polygon points="748.33,-6.25 816.70,-3.07 775.01,86.62" opacity="0.051" /><polygon points="816.70,-3.07 968.36,21.36 903.15,87.84" opacity="0.031" /><polygon points="968.36,21.36 1060.43,31.74 986.37,88.61" opacity="0.029" /><polygon points="-98.44,94.56 10.78,85.15 -49.85,194.40" opacity="0.063" /><polygon points="10.78,85.15 115.06,95.17 19.02,185.36" opacity="0.057" /><polygon points="115.06,95.17 220.69,110.04 150.27,159.40" opacity="0.002" /><polygon points="220.69,110.04 290.50,64.81 250.87,200.56" opacity="0.036" /><polygon points="290.50,64.81 385.58,75.00 348.74,173.23" opacity="0.043" /><polygon points="385.58,75.00 525.99,78.76 431.81,191.92" opacity="0.057" /><polygon points="525.99,78.76 625.33,97.37 557.23,157.33" opacity="0.053" /><polygon points="625.33,97.37 688.20,89.21 627.74,171.51" opacity="0.006" /><polygon points="688.20,89.21 775.01,86.62 752.97,174.70" opacity="0.047" /><polygon points="775.01,86.62 903.15,87.84 842.23,172.80" opacity="0.088" /><polygon points="903.15,87.84 986.37,88.61 948.62,175.28" opacity="0.040" /><polygon points="986.37,88.61 1108.63,92.83 1065.89,152.53" opacity="0.089" /><polygon points="10.78,85.15 -49.85,194.40 19.02,185.36" opacity="0.192" /><polygon points="115.06,95.17 19.02,185.36 150.27,159.40" opacity="0.178" /><polygon points="220.69,110.04 150.27,159.40 250.87,200.56" opacity="0.134" /><polygon points="290.50,64.81 250.87,200.56 348.74,173.23" opacity="0.120" /><polygon points="385.58,75.00 348.74,173.23 431.81,191.92" opacity="0.111" /><polygon points="525.99,78.76 431.81,191.92 557.23,157.33" opacity="0.110" /><polygon points="625.33,97.37 557.23,157.33 627.74,171.51" opacity="0.159" /><polygon points="688.20,89.21 627.74,171.51 752.97,174.70" opacity="0.167" /><polygon points="775.01,86.62 752.97,174.70 842.23,172.80" opacity="0.176" /><polygon points="903.15,87.84 842.23,172.80 948.62,175.28" opacity="0.187" /><polygon points="986.37,88.61 948.62,175.28 1065.89,152.53" opacity="0.169" /><polygon points="-49.85,194.40 -88.39,237.28 30.69,268.66" opacity="0.150" /><polygon points="19.02,185.36 30.69,268.66 99.60,257.74" opacity="0.110" /><polygon points="150.27,159.40 99.60,257.74 217.27,246.64" opacity="0.120" /><polygon points="250.87,200.56 217.27,246.64 271.08,252.75" opacity="0.196" /><polygon points="348.74,173.23 271.08,252.75 422.59,233.42" opacity="0.155" /><polygon points="431.81,191.92 422.59,233.42 509.54,289.52" opacity="0.126" /><polygon points="557.23,157.33 509.54,289.52 584.05,231.40" opacity="0.131" /><polygon points="627.74,171.51 584.05,231.40 698.68,255.07" opacity="0.143" /><polygon points="752.97,174.70 698.68,255.07 828.50,275.95" opacity="0.124" /><polygon points="842.23,172.80 828.50,275.95 901.68,274.56" opacity="0.119" /><polygon points="948.62,175.28 901.68,274.56 998.50,283.09" opacity="0.168" /><polygon points="1065.89,152.53 998.50,283.09 1098.63,256.91" opacity="0.155" /><polygon points="-49.85,194.40 19.02,185.36 30.69,268.66" opacity="0.033" /><polygon points="19.02,185.36 150.27,159.40 99.60,257.74" opacity="0.058" /><polygon points="150.27,159.40 250.87,200.56 217.27,246.64" opacity="0.007" /><polygon points="250.87,200.56 348.74,173.23 271.08,252.75" opacity="0.003" /><polygon points="348.74,173.23 431.81,191.92 422.59,233.42" opacity="0.080" /><polygon points="431.81,191.92 557.23,157.33 509.54,289.52" opacity="0.072" /><polygon points="557.23,157.33 627.74,171.51 584.05,231.40" opacity="0.029" /><polygon points="627.74,171.51 752.97,174.70 698.68,255.07" opacity="0.004" /><polygon points="752.97,174.70 842.23,172.80 828.50,275.95" opacity="0.052" /><polygon points="842.23,172.80 948.62,175.28 901.68,274.56" opacity="0.076" /><polygon points="948.62,175.28 1065.89,152.53 998.50,283.09" opacity="0.075" /><polygon points="-88.39,237.28 30.69,268.66 -67.93,371.57" opacity="0.081" /><polygon points="30.69,268.66 99.60,257.74 28.46,352.61" opacity="0.043" /><polygon points="99.60,257.74 217.27,246.64 157.41,317.28" opacity="0.066" /><polygon points="217.27,246.64 271.08,252.75 251.64,344.12" opacity="0.088" /><polygon points="271.08,252.75 422.59,233.42 368.43,334.55" opacity="0.052" /><polygon points="422.59,233.42 509.54,289.52 431.05,320.39" opacity="0.063" /><polygon points="509.54,289.52 584.05,231.40 539.52,341.74" opacity="0.004" /><polygon points="584.05,231.40 698.68,255.07 668.59,351.27" opacity="0.079" /><polygon points="698.68,255.07 828.50,275.95 747.67,350.16" opacity="0.006" /><polygon points="828.50,275.95 901.68,274.56 849.39,351.69" opacity="0.086" /><polygon points="901.68,274.56 998.50,283.09 958.60,339.14" opacity="0.087" /><polygon points="998.50,283.09 1098.63,256.91 1076.17,367.60" opacity="0.060" /><polygon points="30.69,268.66 -67.93,371.57 28.46,352.61" opacity="0.194" /><polygon points="99.60,257.74 28.46,352.61 157.41,317.28" opacity="0.137" /><polygon points="217.27,246.64 157.41,317.28 251.64,344.12" opacity="0.183" /><polygon points="271.08,252.75 251.64,344.12 368.43,334.55" opacity="0.197" /><polygon points="422.59,233.42 368.43,334.55 431.05,320.39" opacity="0.146" /><polygon points="509.54,289.52 431.05,320.39 539.52,341.74" opacity="0.156" /><polygon points="584.05,231.40 539.52,341.74 668.59,351.27" opacity="0.113" /><polygon points="698.68,255.07 668.59,351.27 747.67,350.16" opacity="0.144" /><polygon points="828.50,275.95 747.67,350.16 849.39,351.69" opacity="0.118" /><polygon points="901.68,274.56 849.39,351.69 958.60,339.14" opacity="0.140" /><polygon points="998.50,283.09 958.60,339.14 1076.17,367.60" opacity="0.148" /><polygon points="-67.93,371.57 -100.33,434.41 -7.19,415.67" opacity="0.140" /><polygon points="28.46,352.61 -7.19,415.67 93.32,428.50" opacity="0.132" /><polygon points="157.41,317.28 93.32,428.50 207.76,433.89" opacity="0.150" /><polygon points="251.64,344.12 207.76,433.89 301.48,431.08" opacity="0.113" /><polygon points="368.43,334.55 301.48,431.08 407.85,431.42" opacity="0.191" /><polygon points="431.05,320.39 407.85,431.42 470.24,424.21" opacity="0.164" /><polygon points="539.52,341.74 470.24,424.21 578.10,412.65" opacity="0.157" /><polygon points="668.59,351.27 578.10,412.65 702.69,422.43" opacity="0.199" /><polygon points="747.67,350.16 702.69,422.43 829.33,439.55" opacity="0.155" /><polygon points="849.39,351.69 829.33,439.55 869.33,422.24" opacity="0.114" /><polygon points="958.60,339.14 869.33,422.24 1020.96,446.48" opacity="0.110" /><polygon points="1076.17,367.60 1020.96,446.48 1078.28,411.42" opacity="0.157" /><polygon points="-67.93,371.57 28.46,352.61 -7.19,415.67" opacity="0.056" /><polygon points="28.46,352.61 157.41,317.28 93.32,428.50" opacity="0.074" /><polygon points="157.41,317.28 251.64,344.12 207.76,433.89" opacity="0.004" /><polygon points="251.64,344.12 368.43,334.55 301.48,431.08" opacity="0.005" /><polygon points="368.43,334.55 431.05,320.39 407.85,431.42" opacity="0.067" /><polygon points="431.05,320.39 539.52,341.74 470.24,424.21" opacity="0.073" /><polygon points="539.52,341.74 668.59,351.27 578.10,412.65" opacity="0.013" /><polygon points="668.59,351.27 747.67,350.16 702.69,422.43" opacity="0.085" /><polygon points="747.67,350.16 849.39,351.69 829.33,439.55" opacity="0.073" /><polygon points="849.39,351.69 958.60,339.14 869.33,422.24" opacity="0.026" /><polygon points="958.60,339.14 1076.17,367.60 1020.96,446.48" opacity="0.056" /><polygon points="-100.33,434.41 -7.19,415.67 -55.20,497.34" opacity="0.016" /><polygon points="-7.19,415.67 93.32,428.50 68.94,547.95" opacity="0.058" /><polygon points="93.32,428.50 207.76,433.89 159.00,517.17" opacity="0.081" /><polygon points="207.76,433.89 301.48,431.08 265.33,527.56" opacity="0.004" /><polygon points="301.48,431.08 407.85,431.42 315.62,515.34" opacity="0.001" /><polygon points="407.85,431.42 470.24,424.21 477.17,513.15" opacity="0.028" /><polygon points="470.24,424.21 578.10,412.65 521.57,525.57" opacity="0.006" /><polygon points="578.10,412.65 702.69,422.43 642.90,542.22" opacity="0.082" /><polygon points="702.69,422.43 829.33,439.55 768.31,500.97" opacity="0.087" /><polygon points="829.33,439.55 869.33,422.24 842.16,512.12" opacity="0.078" /><polygon points="869.33,422.24 1020.96,446.48 950.70,504.91" opacity="0.060" /><polygon points="1020.96,446.48 1078.28,411.42 1056.89,514.28" opacity="0.000" /><polygon points="-7.19,415.67 -55.20,497.34 68.94,547.95" opacity="0.151" /><polygon points="93.32,428.50 68.94,547.95 159.00,517.17" opacity="0.140" /><polygon points="207.76,433.89 159.00,517.17 265.33,527.56" opacity="0.152" /><polygon points="301.48,431.08 265.33,527.56 315.62,515.34" opacity="0.142" /><polygon points="407.85,431.42 315.62,515.34 477.17,513.15" opacity="0.148" /><polygon points="470.24,424.21 477.17,513.15 521.57,525.57" opacity="0.180" /><polygon points="578.10,412.65 521.57,525.57 642.90,542.22" opacity="0.130" /><polygon points="702.69,422.43 642.90,542.22 768.31,500.97" opacity="0.154" /><polygon points="829.33,439.55 768.31,500.97 842.16,512.12" opacity="0.109" /><polygon points="869.33,422.24 842.16,512.12 950.70,504.91" opacity="0.121" /><polygon points="1020.96,446.48 950.70,504.91 1056.89,514.28" opacity="0.134" /><polygon points="-55.20,497.34 -88.03,602.84 13.53,610.33" opacity="0.107" /><polygon points="68.94,547.95 13.53,610.33 120.25,588.03" opacity="0.177" /><polygon points="159.00,517.17 120.25,588.03 222.55,582.22" opacity="0.121" /><polygon points="265.33,527.56 222.55,582.22 301.69,639.97" opacity="0.116" /><polygon points="315.62,515.34 301.69,639.97 405.30,590.02" opacity="0.146" /><polygon points="477.17,513.15 405.30,590.02 515.82,576.17" opacity="0.144" /><polygon points="521.57,525.57 515.82,576.17 611.09,620.29" opacity="0.192" /><polygon points="642.90,542.22 611.09,620.29 712.60,620.03" opacity="0.188" /><polygon points="768.31,500.97 712.60,620.03 822.79,608.06" opacity="0.119" /><polygon points="842.16,512.12 822.79,608.06 907.07,633.13" opacity="0.184" /><polygon points="950.70,504.91 907.07,633.13 996.20,613.68" opacity="0.102" /><polygon points="1056.89,514.28 996.20,613.68 1122.03,611.86" opacity="0.145" /><polygon points="-55.20,497.34 68.94,547.95 13.53,610.33" opacity="0.063" /><polygon points="68.94,547.95 159.00,517.17 120.25,588.03" opacity="0.022" /><polygon points="159.00,517.17 265.33,527.56 222.55,582.22" opacity="0.066" /><polygon points="265.33,527.56 315.62,515.34 301.69,639.97" opacity="0.071" /><polygon points="315.62,515.34 477.17,513.15 405.30,590.02" opacity="0.040" /><polygon points="477.17,513.15 521.57,525.57 515.82,576.17" opacity="0.009" /><polygon points="521.57,525.57 642.90,542.22 611.09,620.29" opacity="0.059" /><polygon points="642.90,542.22 768.31,500.97 712.60,620.03" opacity="0.088" /><polygon points="768.31,500.97 842.16,512.12 822.79,608.06" opacity="0.026" /><polygon points="842.16,512.12 950.70,504.91 907.07,633.13" opacity="0.050" /><polygon points="950.70,504.91 1056.89,514.28 996.20,613.68" opacity="0.061" /><polygon points="-88.03,602.84 13.53,610.33 -42.41,702.55" opacity="0.002" /><polygon points="13.53,610.33 120.25,588.03 37.72,712.28" opacity="0.082" /><polygon points="120.25,588.03 222.55,582.22 151.40,707.37" opacity="0.055" /><polygon points="222.55,582.22 301.69,639.97 242.84,692.19" opacity="0.075" /><polygon points="301.69,639.97 405.30,590.02 338.44,681.95" opacity="0.017" /><polygon points="405.30,590.02 515.82,576.17 464.60,668.02" opacity="0.031" /><polygon points="515.82,576.17 611.09,620.29 536.15,711.98" opacity="0.068" /><polygon points="611.09,620.29 712.60,620.03 635.01,692.45" opacity="0.005" /><polygon points="712.60,620.03 822.79,608.06 762.81,660.92" opacity="0.079" /><polygon points="822.79,608.06 907.07,633.13 875.83,695.91" opacity="0.030" /><polygon points="907.07,633.13 996.20,613.68 949.43,692.50" opacity="0.011" /><polygon points="996.20,613.68 1122.03,611.86 1050.46,691.38" opacity="0.030" /><polygon points="13.53,610.33 -42.41,702.55 37.72,712.28" opacity="0.128" /><polygon points="120.25,588.03 37.72,712.28 151.40,707.37" opacity="0.162" /><polygon points="222.55,582.22 151.40,707.37 242.84,692.19" opacity="0.128" /><polygon points="301.69,639.97 242.84,692.19 338.44,681.95" opacity="0.191" /><polygon points="405.30,590.02 338.44,681.95 464.60,668.02" opacity="0.103" /><polygon points="515.82,576.17 464.60,668.02 536.15,711.98" opacity="0.176" /><polygon points="611.09,620.29 536.15,711.98 635.01,692.45" opacity="0.183" /><polygon points="712.60,620.03 635.01,692.45 762.81,660.92" opacity="0.200" /><polygon points="822.79,608.06 762.81,660.92 875.83,695.91" opacity="0.110" /><polygon points="907.07,633.13 875.83,695.91 949.43,692.50" opacity="0.127" /><polygon points="996.20,613.68 949.43,692.50 1050.46,691.38" opacity="0.105" /><polygon points="-42.41,702.55 -102.63,797.56 20.00,757.33" opacity="0.170" /><polygon points="37.72,712.28 20.00,757.33 122.50,755.21" opacity="0.158" /><polygon points="151.40,707.37 122.50,755.21 179.05,755.52" opacity="0.183" /><polygon points="242.84,692.19 179.05,755.52 294.97,792.06" opacity="0.159" /><polygon points="338.44,681.95 294.97,792.06 399.51,780.89" opacity="0.172" /><polygon points="464.60,668.02 399.51,780.89 493.14,772.78" opacity="0.143" /><polygon points="536.15,711.98 493.14,772.78 595.99,764.78" opacity="0.119" /><polygon points="635.01,692.45 595.99,764.78 696.34,768.91" opacity="0.179" /><polygon points="762.81,660.92 696.34,768.91 802.70,794.01" opacity="0.132" /><polygon points="875.83,695.91 802.70,794.01 870.98,777.04" opacity="0.174" /><polygon points="949.43,692.50 870.98,777.04 997.63,790.59" opacity="0.152" /><polygon points="1050.46,691.38 997.63,790.59 1110.35,783.90" opacity="0.116" /><polygon points="-42.41,702.55 37.72,712.28 20.00,757.33" opacity="0.004" /><polygon points="37.72,712.28 151.40,707.37 122.50,755.21" opacity="0.016" /><polygon points="151.40,707.37 242.84,692.19 179.05,755.52" opacity="0.024" /><polygon points="242.84,692.19 338.44,681.95 294.97,792.06" opacity="0.008" /><polygon points="338.44,681.95 464.60,668.02 399.51,780.89" opacity="0.079" /><polygon points="464.60,668.02 536.15,711.98 493.14,772.78" opacity="0.034" /><polygon points="536.15,711.98 635.01,692.45 595.99,764.78" opacity="0.005" /><polygon points="635.01,692.45 762.81,660.92 696.34,768.91" opacity="0.082" /><polygon points="762.81,660.92 875.83,695.91 802.70,794.01" opacity="0.085" /><polygon points="875.83,695.91 949.43,692.50 870.98,777.04" opacity="0.047" /><polygon points="949.43,692.50 1050.46,691.38 997.63,790.59" opacity="0.018" /><polygon points="-102.63,797.56 20.00,757.33 -40.41,865.34" opacity="0.005" /><polygon points="20.00,757.33 122.50,755.21 59.99,858.16" opacity="0.044" /><polygon points="122.50,755.21 179.05,755.52 137.24,842.20" opacity="0.010" /><polygon points="179.05,755.52 294.97,792.06 237.46,855.13" opacity="0.076" /><polygon points="294.97,792.06 399.51,780.89 339.78,870.27" opacity="0.023" /><polygon points="399.51,780.89 493.14,772.78 461.75,857.68" opacity="0.059" /><polygon points="493.14,772.78 595.99,764.78 552.91,863.71" opacity="0.032" /><polygon points="595.99,764.78 696.34,768.91 630.90,879.49" opacity="0.082" /><polygon points="696.34,768.91 802.70,794.01 745.10,897.79" opacity="0.062" /><polygon points="802.70,794.01 870.98,777.04 867.30,886.20" opacity="0.025" /><polygon points="870.98,777.04 997.63,790.59 974.88,843.46" opacity="0.047" /><polygon points="997.63,790.59 1110.35,783.90 1061.17,857.21" opacity="0.033" /><polygon points="20.00,757.33 -40.41,865.34 59.99,858.16" opacity="0.166" /><polygon points="122.50,755.21 59.99,858.16 137.24,842.20" opacity="0.183" /><polygon points="179.05,755.52 137.24,842.20 237.46,855.13" opacity="0.152" /><polygon points="294.97,792.06 237.46,855.13 339.78,870.27" opacity="0.175" /><polygon points="399.51,780.89 339.78,870.27 461.75,857.68" opacity="0.155" /><polygon points="493.14,772.78 461.75,857.68 552.91,863.71" opacity="0.200" /><polygon points="595.99,764.78 552.91,863.71 630.90,879.49" opacity="0.172" /><polygon points="696.34,768.91 630.90,879.49 745.10,897.79" opacity="0.152" /><polygon points="802.70,794.01 745.10,897.79 867.30,886.20" opacity="0.125" /><polygon points="870.98,777.04 867.30,886.20 974.88,843.46" opacity="0.195" /><polygon points="997.63,790.59 974.88,843.46 1061.17,857.21" opacity="0.183" /><polygon points="-40.41,865.34 -101.60,974.33 -8.16,958.72" opacity="0.128" /><polygon points="59.99,858.16 -8.16,958.72 68.00,946.24" opacity="0.116" /><polygon points="137.24,842.20 68.00,946.24 204.05,948.44" opacity="0.122" /><polygon points="237.46,855.13 204.05,948.44 323.28,959.22" opacity="0.157" /><polygon points="339.78,870.27 323.28,959.22 411.08,957.38" opacity="0.199" /><polygon points="461.75,857.68 411.08,957.38 502.74,946.46" opacity="0.146" /><polygon points="552.91,863.71 502.74,946.46 624.93,932.74" opacity="0.148" /><polygon points="630.90,879.49 624.93,932.74 716.53,980.90" opacity="0.190" /><polygon points="745.10,897.79 716.53,980.90 807.42,965.07" opacity="0.162" /><polygon points="867.30,886.20 807.42,965.07 870.74,960.69" opacity="0.131" /><polygon points="974.88,843.46 870.74,960.69 999.04,952.41" opacity="0.143" /><polygon points="1061.17,857.21 999.04,952.41 1124.33,951.93" opacity="0.165" /><polygon points="-40.41,865.34 59.99,858.16 -8.16,958.72" opacity="0.056" /><polygon points="59.99,858.16 137.24,842.20 68.00,946.24" opacity="0.005" /><polygon points="137.24,842.20 237.46,855.13 204.05,948.44" opacity="0.035" /><polygon points="237.46,855.13 339.78,870.27 323.28,959.22" opacity="0.075" /><polygon points="339.78,870.27 461.75,857.68 411.08,957.38" opacity="0.072" /><polygon points="461.75,857.68 552.91,863.71 502.74,946.46" opacity="0.046" /><polygon points="552.91,863.71 630.90,879.49 624.93,932.74" opacity="0.075" /><polygon points="630.90,879.49 745.10,897.79 716.53,980.90" opacity="0.042" /><polygon points="745.10,897.79 867.30,886.20 807.42,965.07" opacity="0.077" /><polygon points="867.30,886.20 974.88,843.46 870.74,960.69" opacity="0.071" /><polygon points="974.88,843.46 1061.17,857.21 999.04,952.41" opacity="0.065" /><polygon points="-101.60,974.33 -8.16,958.72 -55.11,1051.75" opacity="0.054" /><polygon points="-8.16,958.72 68.00,946.24 52.93,1038.39" opacity="0.039" /><polygon points="68.00,946.24 204.05,948.44 164.70,1044.02" opacity="0.069" /><polygon points="204.05,948.44 323.28,959.22 254.06,1041.58" opacity="0.061" /><polygon points="323.28,959.22 411.08,957.38 338.55,1056.63" opacity="0.018" /><polygon points="411.08,957.38 502.74,946.46 447.36,1021.61" opacity="0.090" /><polygon points="502.74,946.46 624.93,932.74 543.81,1045.24" opacity="0.065" /><polygon points="624.93,932.74 716.53,980.90 645.61,1046.21" opacity="0.057" /><polygon points="716.53,980.90 807.42,965.07 762.68,1028.69" opacity="0.071" /><polygon points="807.42,965.07 870.74,960.69 846.93,1036.07" opacity="0.027" /><polygon points="870.74,960.69 999.04,952.41 949.44,1035.27" opacity="0.075" /><polygon points="999.04,952.41 1124.33,951.93 1077.03,1019.42" opacity="0.030" /><polygon points="-8.16,958.72 -55.11,1051.75 52.93,1038.39" opacity="0.120" /><polygon points="68.00,946.24 52.93,1038.39 164.70,1044.02" opacity="0.133" /><polygon points="204.05,948.44 164.70,1044.02 254.06,1041.58" opacity="0.176" /><polygon points="323.28,959.22 254.06,1041.58 338.55,1056.63" opacity="0.197" /><polygon points="411.08,957.38 338.55,1056.63 447.36,1021.61" opacity="0.114" /><polygon points="502.74,946.46 447.36,1021.61 543.81,1045.24" opacity="0.157" /><polygon points="624.93,932.74 543.81,1045.24 645.61,1046.21" opacity="0.180" /><polygon points="716.53,980.90 645.61,1046.21 762.68,1028.69" opacity="0.173" /><polygon points="807.42,965.07 762.68,1028.69 846.93,1036.07" opacity="0.138" /><polygon points="870.74,960.69 846.93,1036.07 949.44,1035.27" opacity="0.130" /><polygon points="999.04,952.41 949.44,1035.27 1077.03,1019.42" opacity="0.102" /><polygon points="-55.11,1051.75 -99.47,1137.32 1.52,1128.51" opacity="0.189" /><polygon points="52.93,1038.39 1.52,1128.51 126.05,1113.97" opacity="0.146" /><polygon points="164.70,1044.02 126.05,1113.97 194.69,1127.98" opacity="0.191" /><polygon points="254.06,1041.58 194.69,1127.98 289.28,1138.55" opacity="0.171" /><polygon points="338.55,1056.63 289.28,1138.55 404.92,1123.38" opacity="0.183" /><polygon points="447.36,1021.61 404.92,1123.38 486.49,1093.99" opacity="0.152" /><polygon points="543.81,1045.24 486.49,1093.99 601.04,1127.37" opacity="0.178" /><polygon points="645.61,1046.21 601.04,1127.37 724.99,1140.40" opacity="0.199" /><polygon points="762.68,1028.69 724.99,1140.40 800.26,1126.20" opacity="0.133" /><polygon points="846.93,1036.07 800.26,1126.20 896.03,1113.87" opacity="0.164" /><polygon points="949.44,1035.27 896.03,1113.87 1006.32,1124.77" opacity="0.174" /><polygon points="1077.03,1019.42 1006.32,1124.77 1071.25,1110.55" opacity="0.123" /><polygon points="-55.11,1051.75 52.93,1038.39 1.52,1128.51" opacity="0.050" /><polygon points="52.93,1038.39 164.70,1044.02 126.05,1113.97" opacity="0.082" /><polygon points="164.70,1044.02 254.06,1041.58 194.69,1127.98" opacity="0.080" /><polygon points="254.06,1041.58 338.55,1056.63 289.28,1138.55" opacity="0.004" /><polygon points="338.55,1056.63 447.36,1021.61 404.92,1123.38" opacity="0.006" /><polygon points="447.36,1021.61 543.81,1045.24 486.49,1093.99" opacity="0.036" /><polygon points="543.81,1045.24 645.61,1046.21 601.04,1127.37" opacity="0.070" /><polygon points="645.61,1046.21 762.68,1028.69 724.99,1140.40" opacity="0.056" /><polygon points="762.68,1028.69 846.93,1036.07 800.26,1126.20" opacity="0.067" /><polygon points="846.93,1036.07 949.44,1035.27 896.03,1113.87" opacity="0.063" /><polygon points="949.44,1035.27 1077.03,1019.42 1006.32,1124.77" opacity="0.080" /></svg>