<svg xmlns="http://www.w3.org/2000/svg" xmlns:xlink="http://www.w3.org/1999/xlink" width="1000px" height="1000px" viewBox="0 0 1000 1000" zoomAndPan="disable"><defs><style type="text/css">polygon { fill: #090909 }</style></defs><polygon points="-94.68,-95.68 -18.51,-79.69 -33.29,-13.85" opacity="0.130" /><polygon points="-18.51,-79.69 109.24,-86.92 55.78,19.41" opacity="0.125" /><polygon points="109.24,-86.92 203.87,-54.91 124.08,-22.97" opacity="0.088" /><polygon points="203.87,-54.91 271.22,-85.61 236.01,16.69" opacity="0.129" /><polygon points="271.22,-85.61 399.18,-81.96 327.19,11.55" opacity="0.135" /><polygon points="399.18,-81.96 507.29,-86.18 449.37,0.27" opacity="0.047" /><polygon points="507.29,-86.18 572.36,-81.51 565.83,-30.14" opacity="0.123" /><polygon points="572.36,-81.51 712.42,-107.03 648.69,-27.85" opacity="0.130" /><polygon points="712.42,-107.03 826.27,-101.27 756.94,-12.13" opacity="0.043" /><polygon points="826.27,-101.27 926.92,-73.85 882.12,-7.57" opacity="0.004" /><polygon points="926.92,-73.85 979.43,-98.45 955.01,1.54" opacity="0.139" /><polygon points="979.43,-98.45 1099.03,-89.84 1080.59,14.56" opacity="0.059" /><polygon points="-18.51,-79.69 -33.29,-13.85 55.78,19.41" opacity="0.089" /><polygon points="109.24,-86.92 55.78,19.41 124.08,-22.97" opacity="0.067" /><polygon points="203.87,-54.91 124.08,-22.97 236.01,16.69" opacity="0.136" /><polygon points="271.22,-85.61 236.01,16.69 327.19,11.55" opacity="0.039" /><polygon points="399.18,-81.96 327.19,11.55 449.37,0.27" opacity="0.017" /><polygon points="507.29,-86.18 449.37,0.27 565.83,-30.14" opacity="0.007" /><polygon points="572.36,-81.51 565.83,-30.14 648.69,-27.85" opacity="0.144" /><polygon points="712.42,-107.03 648.69,-27.85 756.94,-12.13" opacity="0.079" /><polygon points="826.27,-101.27 756.94,-12.13 882.12,-7.57" opacity="0.142" /><polygon points="926.92,-73.85 882.12,-7.57 955.01,1.54" opacity="0.102" /><polygon points="979.43,-98.45 955.01,1.54 1080.59,14.56" opacity="0.087" /><polygon points="-33.29,-13.85 -87.07,75.47 -18.45,93.10" opacity="0.084" /><polygon points="55.78,19.41 -18.45,93.10 81.75,110.34" opacity="0.023" /><polygon points="124.08,-22.97 81.75,110.34 195.87,93.91" opacity="0.147" /><polygon points="236.01,16.69 195.87,93.91 284.03,85.32" opacity="0.067" /><polygon points="327.19,11.55 284.03,85.32 394.21,63.95" opacity="0.005" /><polygon points="449.37,0.27 394.21,63.95 500.91,103.93" opacity="0.070" /><polygon points="565.83,-30.14 500.91,103.93 599.99,86.02" opacity="0.049" /><polygon points="648.69,-27.85 599.99,86.02 700.04,89.35" opacity="0.145" /><polygon points="756.94,-12.13 700.04,89.35 820.75,79.12" opacity="0.068" /><polygon points="882.12,-7.57 820.75,79.12 888.58,98.04" opacity="0.126" /><polygon points="955.01,1.54 888.58,98.04 997.05,90.77" opacity="0.105" /><polygon points="1080.59,14.56 997.05,90.77 1089.41,79.62" opacity="0.091" /><polygon points="-33.29,-13.85 55.78,19.41 -18.45,93.10" opacity="0.146" /><polygon points="55.78,19.41 124.08,-22.97 81.75,110.34" opacity="0.038" /><polygon points="124.08,-22.97 236.01,16.69 195.87,93.91" opacity="0.057" /><polygon points="236.01,16.69 327.19,11.55 284.03,85.32" opacity="0.101" /><polygon points="327.19,11.55 449.37,0.27 394.21,63.95" opacity="0.103" /><polygon points="449.37,0.27 565.83,-30.14 500.91,103.93" opacity="0.028" /><polygon points="565.83,-30.14 648.69,-27.85 599.99,86.02" opacity="0.051" /><polygon points="648.69,-27.85 756.94,-12.13 700.04,89.35" opacity="0.033" /><polygon points="756.94,-12.13 882.12,-7.57 820.75,79.12" opacity="0.044" /><polygon points="882.12,-7.57 955.01,1.54 888.58,98.04" opacity="0.138" /><polygon points="955.01,1.54 1080.59,14.56 997.05,90.77" opacity="0.030" /><polygon points="-87.07,75.47 -18.45,93.10 -70.64,179.98" opacity="0.009" /><polygon points="-18.45,93.10 81.75,110.34 52.12,169.95" opacity="0.143" /><polygon points="81.75,110.34 195.87,93.91 139.38,159.69" opacity="0.005" /><polygon points="195.87,93.91 284.03,85.32 252.26,166.09" opacity="0.021" /><polygon points="284.03,85.32 394.21,63.95 339.92,170.94" opacity="0.150" /><polygon points="394.21,63.95 500.91,103.93 436.98,181.25" opacity="0.009" /><polygon points="500.91,103.93 599.99,86.02 519.83,158.37" opacity="0.089" /><polygon points="599.99,86.02 700.04,89.35 647.59,199.39" opacity="0.029" /><polygon points="700.04,89.35 820.75,79.12 744.52,141.30" opacity="0.085" /><polygon points="820.75,79.12 888.58,98.04 854.50,164.15" opacity="0.025" /><polygon points="888.58,98.04 997.05,90.77 958.84,191.95" opacity="0.089" /><polygon points="997.05,90.77 1089.41,79.62 1027.01,178.82" opacity="0.026" /><polygon points="-18.45,93.10 -70.64,179.98 52.12,169.95" opacity="0.086" /><polygon points="81.75,110.34 52.12,169.95 139.38,159.69" opacity="0.116" /><polygon points="195.87,93.91 139.38,159.69 252.26,166.09" opacity="0.010" /><polygon points="284.03,85.32 252.26,166.09 339.92,170.94" opacity="0.146" /><polygon points="394.21,63.95 339.92,170.94 436.98,181.25" opacity="0.108" /><polygon points="500.91,103.93 436.98,181.25 519.83,158.37" opacity="0.093" /><polygon points="599.99,86.02 519.83,158.37 647.59,199.39" opacity="0.109" /><polygon points="700.04,89.35 647.59,199.39 744.52,141.30" opacity="0.073" /><polygon points="820.75,79.12 744.52,141.30 854.50,164.15" opacity="0.129" /><polygon points="888.58,98.04 854.50,164.15 958.84,191.95" opacity="0.121" /><polygon points="997.05,90.77 958.84,191.95 1027.01,178.82" opacity="0.010" /><polygon points="-70.64,179.98 -112.76,258.60 1.07,267.82" opacity="0.049" /><polygon points="52.12,169.95 1.07,267.82 100.91,251.05" opacity="0.074" /><polygon points="139.38,159.69 100.91,251.05 205.56,265.67" opacity="0.122" /><polygon points="252.26,166.09 205.56,265.67 299.82,259.87" opacity="0.063" /><polygon points="339.92,170.94 299.82,259.87 405.66,264.07" opacity="0.002" /><polygon points="436.98,181.25 405.66,264.07 496.56,263.44" opacity="0.011" /><polygon points="519.83,158.37 496.56,263.44 593.85,252.73" opacity="0.037" /><polygon points="647.59,199.39 593.85,252.73 701.57,277.11" opacity="0.045" /><polygon points="744.52,141.30 701.57,277.11 803.38,242.36" opacity="0.058" /><polygon points="854.50,164.15 803.38,242.36 896.91,237.76" opacity="0.057" /><polygon points="958.84,191.95 896.91,237.76 995.12,275.28" opacity="0.093" /><polygon points="1027.01,178.82 995.12,275.28 1100.56,259.62" opacity="0.077" /><polygon points="-70.64,179.98 52.12,169.95 1.07,267.82" opacity="0.124" /><polygon points="52.12,169.95 139.38,159.69 100.91,251.05" opacity="0.097" /><polygon points="139.38,159.69 252.26,166.09 205.56,265.67" opacity="0.120" /><polygon points="252.26,166.09 339.92,170.94 299.82,259.87" opacity="0.108" /><polygon points="339.92,170.94 436.98,181.25 405.66,264.07" opacity="0.097" /><polygon points="436.98,181.25 519.83,158.37 496.56,263.44" opacity="0.035" /><polygon points="519.83,158.37 647.59,199.39 593.85,252.73" opacity="0.071" /><polygon points="647.59,199.39 744.52,141.30 701.57,277.11" opacity="0.090" /><polygon points="744.52,141.30 854.50,164.15 803.38,242.36" opacity="0.138" /><polygon points="854.50,164.15 958.84,191.95 896.91,237.76" opacity="0.037" /><polygon points="958.84,191.95 1027.01,178.82 995.12,275.28" opacity="0.040" /><polygon points="-112.76,258.60 1.07,267.82 -76.90,340.01" opacity="0.108" /><polygon points="1.07,267.82 100.91,251.05 66.04,337.85" opacity="0.067" /><polygon points="100.91,251.05 205.56,265.67 155.81,345.84" opacity="0.123" /><polygon points="205.56,265.67 299.82,259.87 244.49,368.71" opacity="0.142" /><polygon points="299.82,259.87 405.66,264.07 339.37,326.57" opacity="0.054" /><polygon points="405.66,264.07 496.56,263.44 456.22,318.60" opacity="0.086" /><polygon points="496.56,263.44 593.85,252.73 577.30,357.96" opacity="0.109" /><polygon points="593.85,252.73 701.57,277.11 671.55,352.42" opacity="0.122" /><polygon points="701.57,277.11 803.38,242.36 760.64,344.96" opacity="0.117" /><polygon points="803.38,242.36 896.91,237.76 855.83,353.38" opacity="0.007" /><polygon points="896.91,237.76 995.12,275.28 926.86,365.16" opacity="0.141" /><polygon points="995.12,275.28 1100.56,259.62 1045.41,363.57" opacity="0.093" /><polygon points="1.07,267.82 -76.90,340.01 66.04,337.85" opacity="0.099" /><polygon points="100.91,251.05 66.04,337.85 155.81,345.84" opacity="0.043" /><polygon points="205.56,265.67 155.81,345.84 244.49,368.71" opacity="0.061" /><polygon points="299.82,259.87 244.49,368.71 339.37,326.57" opacity="0.111" /><polygon points="405.66,264.07 339.37,326.57 456.22,318.60" opacity="0.047" /><polygon points="496.56,263.44 456.22,318.60 577.30,357.96" opacity="0.091" /><polygon points="593.85,252.73 577.30,357.96 671.55,352.42" opacity="0.140" /><polygon points="701.57,277.11 671.55,352.42 760.64,344.96" opacity="0.069" /><polygon points="803.38,242.36 760.64,344.96 855.83,353.38" opacity="0.022" /><polygon points="896.91,237.76 855.83,353.38 926.86,365.16" opacity="0.050" /><polygon points="995.12,275.28 926.86,365.16 1045.41,363.57" opacity="0.032" /><polygon points="-76.90,340.01 -113.62,447.45 0.02,448.97" opacity="0.026" /><polygon points="66.04,337.85 0.02,448.97 112.61,411.03" opacity="0.141" /><polygon points="155.81,345.84 112.61,411.03 199.33,436.86" opacity="0.025" /><polygon points="244.49,368.71 199.33,436.86 305.01,422.89" opacity="0.140" /><polygon points="339.37,326.57 305.01,422.89 377.05,418.09" opacity="0.023" /><polygon points="456.22,318.60 377.05,418.09 501.67,466.86" opacity="0.027" /><polygon points="577.30,357.96 501.67,466.86 592.98,439.45" opacity="0.020" /><polygon points="671.55,352.42 592.98,439.45 696.44,412.54" opacity="0.046" /><polygon points="760.64,344.96 696.44,412.54 781.40,441.46" opacity="0.106" /><polygon points="855.83,353.38 781.40,441.46 911.64,439.25" opacity="0.006" /><polygon points="926.86,365.16 911.64,439.25 1008.79,413.51" opacity="0.035" /><polygon points="1045.41,363.57 1008.79,413.51 1127.84,429.12" opacity="0.061" /><polygon points="-76.90,340.01 66.04,337.85 0.02,448.97" opacity="0.024" /><polygon points="66.04,337.85 155.81,345.84 112.61,411.03" opacity="0.067" /><polygon points="155.81,345.84 244.49,368.71 199.33,436.86" opacity="0.032" /><polygon points="244.49,368.71 339.37,326.57 305.01,422.89" opacity="0.099" /><polygon points="339.37,326.57 456.22,318.60 377.05,418.09" opacity="0.101" /><polygon points="456.22,318.60 577.30,357.96 501.67,466.86" opacity="0.024" /><polygon points="577.30,357.96 671.55,352.42 592.98,439.45" opacity="0.102" /><polygon points="671.55,352.42 760.64,344.96 696.44,412.54" opacity="0.069" /><polygon points="760.64,344.96 855.83,353.38 781.40,441.46" opacity="0.140" /><polygon points="855.83,353.38 926.86,365.16 911.64,439.25" opacity="0.034" /><polygon points="926.86,365.16 1045.41,363.57 1008.79,413.51" opacity="0.082" /><polygon points="-113.62,447.45 0.02,448.97 -49.65,539.44" opacity="0.132" /><polygon points="0.02,448.97 112.61,411.03 50.63,515.87" opacity="0.149" /><polygon points="112.61,411.03 199.33,436.86 130.83,545.76" opacity="0.024" /><polygon points="199.33,436.86 305.01,422.89 238.94,532.73" opacity="0.018" /><polygon points="305.01,422.89 377.05,418.09 355.08,518.65" opacity="0.132" /><polygon points="377.05,418.09 501.67,466.86 445.95,528.29" opacity="0.109" /><polygon points="501.67,466.86 592.98,439.45 527.41,538.78" opacity="0.001" /><polygon points="592.98,439.45 696.44,412.54 654.33,505.31" opacity="0.067" /><polygon points="696.44,412.54 781.40,441.46 754.31,519.36" opacity="0.041" /><polygon points="781.40,441.46 911.64,439.25 823.34,523.20" opacity="0.048" /><polygon points="911.64,439.25 1008.79,413.51 926.45,494.27" opacity="0.095" /><polygon points="1008.79,413.51 1127.84,429.12 1028.66,508.68" opacity="0.053" /><polygon points="0.02,448.97 -49.65,539.44 50.63,515.87" opacity="0.124" /><polygon points="112.61,411.03 50.63,515.87 130.83,545.76" opacity="0.079" /><polygon points="199.33,436.86 130.83,545.76 238.94,532.73" opacity="0.033" /><polygon points="305.01,422.89 238.94,532.73 355.08,518.65" opacity="0.037" /><polygon points="377.05,418.09 355.08,518.65 445.95,528.29" opacity="0.039" /><polygon points="501.67,466.86 445.95,528.29 527.41,538.78" opacity="0.084" /><polygon points="592.98,439.45 527.41,538.78 654.33,505.31" opacity="0.098" /><polygon points="696.44,412.54 654.33,505.31 754.31,519.36" opacity="0.007" /><polygon points="781.40,441.46 754.31,519.36 823.34,523.20" opacity="0.015" /><polygon points="911.64,439.25 823.34,523.20 926.45,494.27" opacity="0.083" /><polygon points="1008.79,413.51 926.45,494.27 1028.66,508.68" opacity="0.040" /><polygon points="-49.65,539.44 -97.57,635.95 -2.53,598.44" opacity="0.145" /><polygon points="50.63,515.87 -2.53,598.44 83.63,617.73" opacity="0.037" /><polygon points="130.83,545.76 83.63,617.73 167.86,597.57" opacity="0.086" /><polygon points="238.94,532.73 167.86,597.57 316.01,590.04" opacity="0.143" /><polygon points="355.08,518.65 316.01,590.04 395.72,613.67" opacity="0.057" /><polygon points="445.95,528.29 395.72,613.67 505.57,593.11" opacity="0.099" /><polygon points="527.41,538.78 505.57,593.11 568.06,609.79" opacity="0.076" /><polygon points="654.33,505.31 568.06,609.79 700.55,627.96" opacity="0.051" /><polygon points="754.31,519.36 700.55,627.96 790.02,605.52" opacity="0.075" /><polygon points="823.34,523.20 790.02,605.52 904.54,613.82" opacity="0.002" /><polygon points="926.45,494.27 904.54,613.82 1004.03,610.25" opacity="0.034" /><polygon points="1028.66,508.68 1004.03,610.25 1080.42,632.65" opacity="0.107" /><polygon points="-49.65,539.44 50.63,515.87 -2.53,598.44" opacity="0.124" /><polygon points="50.63,515.87 130.83,545.76 83.63,617.73" opacity="0.089" /><polygon points="130.83,545.76 238.94,532.73 167.86,597.57" opacity="0.097" /><polygon points="238.94,532.73 355.08,518.65 316.01,590.04" opacity="0.051" /><polygon points="355.08,518.65 445.95,528.29 395.72,613.67" opacity="0.003" /><polygon points="445.95,528.29 527.41,538.78 505.57,593.11" opacity="0.025" /><polygon points="527.41,538.78 654.33,505.31 568.06,609.79" opacity="0.116" /><polygon points="654.33,505.31 754.31,519.36 700.55,627.96" opacity="0.019" /><polygon points="754.31,519.36 823.34,523.20 790.02,605.52" opacity="0.065" /><polygon points="823.34,523.20 926.45,494.27 904.54,613.82" opacity="0.074" /><polygon points="926.45,494.27 1028.66,508.68 1004.03,610.25" opacity="0.100" /><polygon points="-97.57,635.95 -2.53,598.44 -61.02,676.34" opacity="0.007" /><polygon points="-2.53,598.44 83.63,617.73 65.98,687.35" opacity="0.033" /><polygon points="83.63,617.73 167.86,597.57 149.83,696.65" opacity="0.148" /><polygon points="167.86,597.57 316.01,590.04 272.78,697.90" opacity="0.073" /><polygon points="316.01,590.04 395.72,613.67 350.19,691.75" opacity="0.044" /><polygon points="395.72,613.67 505.57,593.11 453.64,697.79" opacity="0.129" /><polygon points="505.57,593.11 568.06,609.79 547.76,661.04" opacity="0.048" /><polygon points="568.06,609.79 700.55,627.96 649.01,673.30" opacity="0.074" /><polygon points="700.55,627.96 790.02,605.52 768.30,670.38" opacity="0.030" /><polygon points="790.02,605.52 904.54,613.82 827.89,677.89" opacity="0.094" /><polygon points="904.54,613.82 1004.03,610.25 940.97,689.72" opacity="0.023" /><polygon points="1004.03,610.25 1080.42,632.65 1060.08,673.72" opacity="0.037" /><polygon points="-2.53,598.44 -61.02,676.34 65.98,687.35" opacity="0.128" /><polygon points="83.63,617.73 65.98,687.35 149.83,696.65" opacity="0.016" /><polygon points="167.86,597.57 149.83,696.65 272.78,697.90" opacity="0.028" /><polygon points="316.01,590.04 272.78,697.90 350.19,691.75" opacity="0.068" /><polygon points="395.72,613.67 350.19,691.75 453.64,697.79" opacity="0.045" /><polygon points="505.57,593.11 453.64,697.79 547.76,661.04" opacity="0.113" /><polygon points="568.06,609.79 547.76,661.04 649.01,673.30" opacity="0.079" /><polygon points="700.55,627.96 649.01,673.30 768.30,670.38" opacity="0.055" /><polygon points="790.02,605.52 768.30,670.38 827.89,677.89" opacity="0.074" /><polygon points="904.54,613.82 827.89,677.89 940.97,689.72" opacity="0.112" /><polygon points="1004.03,610.25 940.97,689.72 1060.08,673.72" opacity="0.031" /><polygon points="-61.02,676.34 -98.77,789.02 -19.52,798.78" opacity="0.101" /><polygon points="65.98,687.35 -19.52,798.78 97.54,780.47" opacity="0.089" /><polygon points="149.83,696.65 97.54,780.47 178.80,785.89" opacity="0.132" /><polygon points="272.78,697.90 178.80,785.89 330.12,761.69" opacity="0.003" /><polygon points="350.19,691.75 330.12,761.69 426.73,762.25" opacity="0.123" /><polygon points="453.64,697.79 426.73,762.25 501.85,770.69" opacity="0.105" /><polygon points="547.76,661.04 501.85,770.69 612.24,769.37" opacity="0.076" /><polygon points="649.01,673.30 612.24,769.37 719.83,753.71" opacity="0.098" /><polygon points="768.30,670.38 719.83,753.71 799.61,775.31" opacity="0.061" /><polygon points="827.89,677.89 799.61,775.31 903.99,756.91" opacity="0.098" /><polygon points="940.97,689.72 903.99,756.91 999.55,779.68" opacity="0.004" /><polygon points="1060.08,673.72 999.55,779.68 1080.04,798.01" opacity="0.109" /><polygon points="-61.02,676.34 65.98,687.35 -19.52,798.78" opacity="0.089" /><polygon points="65.98,687.35 149.83,696.65 97.54,780.47" opacity="0.075" /><polygon points="149.83,696.65 272.78,697.90 178.80,785.89" opacity="0.129" /><polygon points="272.78,697.90 350.19,691.75 330.12,761.69" opacity="0.128" /><polygon points="350.19,691.75 453.64,697.79 426.73,762.25" opacity="0.069" /><polygon points="453.64,697.79 547.76,661.04 501.85,770.69" opacity="0.003" /><polygon points="547.76,661.04 649.01,673.30 612.24,769.37" opacity="0.106" /><polygon points="649.01,673.30 768.30,670.38 719.83,753.71" opacity="0.057" /><polygon points="768.30,670.38 827.89,677.89 799.61,775.31" opacity="0.148" /><polygon points="827.89,677.89 940.97,689.72 903.99,756.91" opacity="0.059" /><polygon points="940.97,689.72 1060.08,673.72 999.55,779.68" opacity="0.123" /><polygon points="-98.77,789.02 -19.52,798.78 -43.48,858.78" opacity="0.054" /><polygon points="-19.52,798.78 97.54,780.47 48.62,835.00" opacity="0.047" /><polygon points="97.54,780.47 178.80,785.89 135.25,872.83" opacity="0.078" /><polygon points="178.80,785.89 330.12,761.69 251.17,865.78" opacity="0.102" /><polygon points="330.12,761.69 426.73,762.25 345.32,855.20" opacity="0.128" /><polygon points="426.73,762.25 501.85,770.69 448.06,866.81" opacity="0.024" /><polygon points="501.85,770.69 612.24,769.37 550.62,857.29" opacity="0.103" /><polygon points="612.24,769.37 719.83,753.71 670.65,858.00" opacity="0.013" /><polygon points="719.83,753.71 799.61,775.31 726.22,877.19" opacity="0.011" /><polygon points="799.61,775.31 903.99,756.91 882.06,878.91" opacity="0.118" /><polygon points="903.99,756.91 999.55,779.68 956.26,864.64" opacity="0.077" /><polygon points="999.55,779.68 1080.04,798.01 1048.70,877.53" opacity="0.081" /><polygon points="-19.52,798.78 -43.48,858.78 48.62,835.00" opacity="0.104" /><polygon points="97.54,780.47 48.62,835.00 135.25,872.83" opacity="0.119" /><polygon points="178.80,785.89 135.25,872.83 251.17,865.78" opacity="0.105" /><polygon points="330.12,761.69 251.17,865.78 345.32,855.20" opacity="0.004" /><polygon points="426.73,762.25 345.32,855.20 448.06,866.81" opacity="0.047" /><polygon points="501.85,770.69 448.06,866.81 550.62,857.29" opacity="0.129" /><polygon points="612.24,769.37 550.62,857.29 670.65,858.00" opacity="0.140" /><polygon points="719.83,753.71 670.65,858.00 726.22,877.19" opacity="0.061" /><polygon points="799.61,775.31 726.22,877.19 882.06,878.91" opacity="0.045" /><polygon points="903.99,756.91 882.06,878.91 956.26,864.64" opacity="0.113" /><polygon points="999.55,779.68 956.26,864.64 1048.70,877.53" opacity="0.096" /><polygon points="-43.48,858.78 -82.03,955.12 3.83,939.10" opacity="0.147" /><polygon points="48.62,835.00 3.83,939.10 119.95,976.81" opacity="0.006" /><polygon points="135.25,872.83 119.95,976.81 195.15,946.54" opacity="0.132" /><polygon points="251.17,865.78 195.15,946.54 312.44,949.09" opacity="0.039" /><polygon points="345.32,855.20 312.44,949.09 392.48,947.72" opacity="0.060" /><polygon points="448.06,866.81 392.48,947.72 515.81,944.63" opacity="0.129" /><polygon points="550.62,857.29 515.81,944.63 577.36,955.03" opacity="0.104" /><polygon points="670.65,858.00 577.36,955.03 704.35,939.72" opacity="0.030" /><polygon points="726.22,877.19 704.35,939.72 781.70,960.62" opacity="0.126" /><polygon points="882.06,878.91 781.70,960.62 898.15,944.19" opacity="0.058" /><polygon points="956.26,864.64 898.15,944.19 1000.63,952.43" opacity="0.126" /><polygon points="1048.70,877.53 1000.63,952.43 1092.17,922.51" opacity="0.143" /><polygon points="-43.48,858.78 48.62,835.00 3.83,939.10" opacity="0.148" /><polygon points="48.62,835.00 135.25,872.83 119.95,976.81" opacity="0.104" /><polygon points="135.25,872.83 251.17,865.78 195.15,946.54" opacity="0.006" /><polygon points="251.17,865.78 345.32,855.20 312.44,949.09" opacity="0.053" /><polygon points="345.32,855.20 448.06,866.81 392.48,947.72" opacity="0.037" /><polygon points="448.06,866.81 550.62,857.29 515.81,944.63" opacity="0.133" /><polygon points="550.62,857.29 670.65,858.00 577.36,955.03" opacity="0.117" /><polygon points="670.65,858.00 726.22,877.19 704.35,939.72" opacity="0.020" /><polygon points="726.22,877.19 882.06,878.91 781.70,960.62" opacity="0.084" /><polygon points="882.06,878.91 956.26,864.64 898.15,944.19" opacity="0.080" /><polygon points="956.26,864.64 1048.70,877.53 1000.63,952.43" opacity="0.080" /><polygon points="-82.03,955.12 3.83,939.10 -69.17,1038.79" opacity="0.025" /><polygon points="3.83,939.10 119.95,976.81 48.94,1041.15" opacity="0.017" /><polygon points="119.95,976.81 195.15,946.54 145.68,1056.61" opacity="0.095" /><polygon points="195.15,946.54 312.44,949.09 250.04,1055.51" opacity="0.050" /><polygon points="312.44,949.09 392.48,947.72 350.40,1039.74" opacity="0.094" /><polygon points="392.48,947.72 515.81,944.63 480.88,1054.74" opacity="0.030" /><polygon points="515.81,944.63 577.36,955.03 546.46,1027.49" opacity="0.038" /><polygon points="577.36,955.03 704.35,939.72 654.84,1045.37" opacity="0.133" /><polygon points="704.35,939.72 781.70,960.62 724.89,1041.86" opacity="0.111" /><polygon points="781.70,960.62 898.15,944.19 839.46,1043.61" opacity="0.122" /><polygon points="898.15,944.19 1000.63,952.43 921.10,1037.46" opacity="0.066" /><polygon points="1000.63,952.43 1092.17,922.51 1061.02,1045.44" opacity="0.103" /><polygon points="3.83,939.10 -69.17,1038.79 48.94,1041.15" opacity="0.028" /><polygon points="119.95,976.81 48.94,1041.15 145.68,1056.61" opacity="0.004" /><polygon points="195.15,946.54 145.68,1056.61 250.04,1055.51" opacity="0.047" /><polygon points="312.44,949.09 250.04,1055.51 350.40,1039.74" opacity="0.041" /><polygon points="392.48,947.72 350.40,1039.74 480.88,1054.74" opacity="0.011" /><polygon points="515.81,944.63 480.88,1054.74 546.46,1027.49" opacity="0.134" /><polygon points="577.36,955.03 546.46,1027.49 654.84,1045.37" opacity="0.102" /><polygon points="704.35,939.72 654.84,1045.37 724.89,1041.86" opacity="0.046" /><polygon points="781.70,960.62 724.89,1041.86 839.46,1043.61" opacity="0.035" /><polygon points="898.15,944.19 839.46,1043.61 921.10,1037.46" opacity="0.092" /><polygon points="1000.63,952.43 921.10,1037.46 1061.02,1045.44" opacity="0.099" /><polygon points="-69.17,1038.79 -129.58,1134.62 0.04,1132.44" opacity="0.045" /><polygon points="48.94,1041.15 0.04,1132.44 92.77,1147.80" opacity="0.082" /><polygon points="145.68,1056.61 92.77,1147.80 200.48,1130.44" opacity="0.017" /><polygon points="250.04,1055.51 200.48,1130.44 304.63,1091.38" opacity="0.067" /><polygon points="350.40,1039.74 304.63,1091.38 414.39,1096.41" opacity="0.106" /><polygon points="480.88,1054.74 414.39,1096.41 503.99,1122.35" opacity="0.138" /><polygon points="546.46,1027.49 503.99,1122.35 600.61,1152.93" opacity="0.057" /><polygon points="654.84,1045.37 600.61,1152.93 667.58,1118.49" opacity="0.034" /><polygon points="724.89,1041.86 667.58,1118.49 807.35,1120.15" opacity="0.002" /><polygon points="839.46,1043.61 807.35,1120.15 889.94,1107.11" opacity="0.077" /><polygon points="921.10,1037.46 889.94,1107.11 1018.37,1137.34" opacity="0.126" /><polygon points="1061.02,1045.44 1018.37,1137.34 1091.43,1102.63" opacity="0.028" /><polygon points="-69.17,1038.79 48.94,1041.15 0.04,1132.44" opacity="0.066" /><polygon points="48.94,1041.15 145.68,1056.61 92.77,1147.80" opacity="0.107" /><polygon points="145.68,1056.61 250.04,1055.51 200.48,1130.44" opacity="0.027" /><polygon points="250.04,1055.51 350.40,1039.74 304.63,1091.38" opacity="0.105" /><polygon points="350.40,1039.74 480.88,1054.74 414.39,1096.41" opacity="0.111" /><polygon points="480.88,1054.74 546.46,1027.49 503.99,1122.35" opacity="0.041" /><polygon points="546.46,1027.49 654.84,1045.37 600.61,1152.93" opacity="0.063" /><polygon points="654.84,1045.37 724.89,1041.86 667.58,1118.49" opacity="0.025" /><polygon points="724.89,1041.86 839.46,1043.61 807.35,1120.15" opacity="0.098" /><polygon points="839.46,1043.61 921.10,1037.46 889.94,1107.11" opacity="0.123" /><polygon points="921.10,1037.46 1061.02,1045.44 1018.37,1137.34" opacity="0.121" /></svg>